<mxfile host="Electron" modified="2023-10-24T09:58:24.524Z" agent="Mozilla/5.0 (Windows NT 10.0; Win64; x64) AppleWebKit/537.36 (KHTML, like Gecko) draw.io/21.2.8 Chrome/112.0.5615.165 Electron/24.2.0 Safari/537.36" etag="OjpITf5fyBWghchWtOkZ" version="21.2.8" type="device">
  <diagram name="Page-1" id="Ugt_GEf-WRC9HJb7Y8Uc">
    <mxGraphModel dx="1276" dy="654" grid="1" gridSize="10" guides="1" tooltips="1" connect="1" arrows="1" fold="1" page="1" pageScale="1" pageWidth="850" pageHeight="1100" math="0" shadow="0">
      <root>
        <mxCell id="0" />
        <mxCell id="1" parent="0" />
        <mxCell id="MrNizOibcVdqVOyJ6Mnh-1" value="Volunteer" style="shape=umlActor;verticalLabelPosition=bottom;verticalAlign=top;html=1;labelPosition=center;align=center;" parent="1" vertex="1">
          <mxGeometry x="25" y="300" width="30" height="60" as="geometry" />
        </mxCell>
        <mxCell id="MrNizOibcVdqVOyJ6Mnh-3" value="Sign up/Sign in" style="ellipse;whiteSpace=wrap;html=1;" parent="1" vertex="1">
          <mxGeometry x="340" y="30" width="140" height="70" as="geometry" />
        </mxCell>
        <mxCell id="MrNizOibcVdqVOyJ6Mnh-5" value="register/unregister&lt;br&gt;&amp;nbsp;for event" style="ellipse;whiteSpace=wrap;html=1;" parent="1" vertex="1">
          <mxGeometry x="310" y="280" width="140" height="70" as="geometry" />
        </mxCell>
        <mxCell id="MrNizOibcVdqVOyJ6Mnh-7" value="view events" style="ellipse;whiteSpace=wrap;html=1;" parent="1" vertex="1">
          <mxGeometry x="350" y="200" width="140" height="70" as="geometry" />
        </mxCell>
        <mxCell id="MrNizOibcVdqVOyJ6Mnh-9" value="" style="endArrow=none;html=1;rounded=0;entryX=0;entryY=0.5;entryDx=0;entryDy=0;" parent="1" edge="1" target="MrNizOibcVdqVOyJ6Mnh-7">
          <mxGeometry width="50" height="50" relative="1" as="geometry">
            <mxPoint x="65" y="310" as="sourcePoint" />
            <mxPoint x="365" y="190" as="targetPoint" />
          </mxGeometry>
        </mxCell>
        <mxCell id="MrNizOibcVdqVOyJ6Mnh-10" value="" style="endArrow=none;html=1;rounded=0;entryX=0;entryY=0.5;entryDx=0;entryDy=0;" parent="1" edge="1" target="MrNizOibcVdqVOyJ6Mnh-5">
          <mxGeometry width="50" height="50" relative="1" as="geometry">
            <mxPoint x="65" y="330" as="sourcePoint" />
            <mxPoint x="315" y="270" as="targetPoint" />
          </mxGeometry>
        </mxCell>
        <mxCell id="MrNizOibcVdqVOyJ6Mnh-21" value="Community Admin" style="shape=umlActor;verticalLabelPosition=bottom;verticalAlign=top;html=1;outlineConnect=0;" parent="1" vertex="1">
          <mxGeometry x="740" y="280" width="30" height="60" as="geometry" />
        </mxCell>
        <mxCell id="MrNizOibcVdqVOyJ6Mnh-22" value="" style="endArrow=none;html=1;rounded=0;entryX=-0.011;entryY=0.649;entryDx=0;entryDy=0;entryPerimeter=0;exitX=0.5;exitY=0;exitDx=0;exitDy=0;exitPerimeter=0;" parent="1" edge="1" target="MrNizOibcVdqVOyJ6Mnh-3" source="MrNizOibcVdqVOyJ6Mnh-1">
          <mxGeometry width="50" height="50" relative="1" as="geometry">
            <mxPoint x="40" y="150" as="sourcePoint" />
            <mxPoint x="300" y="120" as="targetPoint" />
          </mxGeometry>
        </mxCell>
        <mxCell id="MrNizOibcVdqVOyJ6Mnh-24" value="" style="endArrow=none;html=1;rounded=0;exitX=1;exitY=0.5;exitDx=0;exitDy=0;" parent="1" edge="1" source="VMS3bR8kqiYhAbY8MyQ3-6">
          <mxGeometry width="50" height="50" relative="1" as="geometry">
            <mxPoint x="480" y="470" as="sourcePoint" />
            <mxPoint x="730" y="320" as="targetPoint" />
          </mxGeometry>
        </mxCell>
        <mxCell id="MrNizOibcVdqVOyJ6Mnh-26" value="" style="endArrow=none;html=1;rounded=0;" parent="1" edge="1">
          <mxGeometry width="50" height="50" relative="1" as="geometry">
            <mxPoint x="490" y="240" as="sourcePoint" />
            <mxPoint x="730" y="300" as="targetPoint" />
            <Array as="points" />
          </mxGeometry>
        </mxCell>
        <mxCell id="VMS3bR8kqiYhAbY8MyQ3-1" value="" style="endArrow=none;html=1;rounded=0;entryX=0.5;entryY=0;entryDx=0;entryDy=0;entryPerimeter=0;exitX=1;exitY=0.5;exitDx=0;exitDy=0;" edge="1" parent="1" source="MrNizOibcVdqVOyJ6Mnh-3" target="MrNizOibcVdqVOyJ6Mnh-21">
          <mxGeometry width="50" height="50" relative="1" as="geometry">
            <mxPoint x="50" y="310" as="sourcePoint" />
            <mxPoint x="348" y="95" as="targetPoint" />
          </mxGeometry>
        </mxCell>
        <mxCell id="VMS3bR8kqiYhAbY8MyQ3-2" value="create an event" style="ellipse;whiteSpace=wrap;html=1;" vertex="1" parent="1">
          <mxGeometry x="400" y="120" width="140" height="70" as="geometry" />
        </mxCell>
        <mxCell id="VMS3bR8kqiYhAbY8MyQ3-3" value="" style="endArrow=none;html=1;rounded=0;exitX=1;exitY=0.5;exitDx=0;exitDy=0;" edge="1" parent="1" source="VMS3bR8kqiYhAbY8MyQ3-2">
          <mxGeometry width="50" height="50" relative="1" as="geometry">
            <mxPoint x="499" y="191" as="sourcePoint" />
            <mxPoint x="740" y="290" as="targetPoint" />
            <Array as="points" />
          </mxGeometry>
        </mxCell>
        <mxCell id="VMS3bR8kqiYhAbY8MyQ3-4" value="check registered&amp;nbsp;&lt;br&gt;volunteers" style="ellipse;whiteSpace=wrap;html=1;" vertex="1" parent="1">
          <mxGeometry x="410" y="340" width="140" height="70" as="geometry" />
        </mxCell>
        <mxCell id="VMS3bR8kqiYhAbY8MyQ3-5" value="" style="endArrow=none;html=1;rounded=0;exitX=1;exitY=0;exitDx=0;exitDy=0;" edge="1" parent="1" source="VMS3bR8kqiYhAbY8MyQ3-4">
          <mxGeometry width="50" height="50" relative="1" as="geometry">
            <mxPoint x="509" y="421" as="sourcePoint" />
            <mxPoint x="730" y="310" as="targetPoint" />
            <Array as="points" />
          </mxGeometry>
        </mxCell>
        <mxCell id="VMS3bR8kqiYhAbY8MyQ3-6" value="logout" style="ellipse;whiteSpace=wrap;html=1;" vertex="1" parent="1">
          <mxGeometry x="330" y="440" width="140" height="70" as="geometry" />
        </mxCell>
        <mxCell id="VMS3bR8kqiYhAbY8MyQ3-7" value="" style="endArrow=none;html=1;rounded=0;entryX=-0.011;entryY=0.397;entryDx=0;entryDy=0;entryPerimeter=0;" edge="1" parent="1" target="VMS3bR8kqiYhAbY8MyQ3-6">
          <mxGeometry width="50" height="50" relative="1" as="geometry">
            <mxPoint x="75" y="340" as="sourcePoint" />
            <mxPoint x="320" y="325" as="targetPoint" />
          </mxGeometry>
        </mxCell>
      </root>
    </mxGraphModel>
  </diagram>
</mxfile>
